<svg xmlns="http://www.w3.org/2000/svg" viewBox="0 0 316.43 199.55"><defs><style>.cls-1{isolation:isolate;}.cls-2{fill:#751b10;}.cls-3{fill:#ac2720;}.cls-4{fill:#e7e7e7;}.cls-5{fill:#878787;}.cls-6{fill:#b0b0b0;mix-blend-mode:multiply;}.cls-7{fill:#ededed;mix-blend-mode:soft-light;}.cls-8{fill:#420c00;}.cls-9{fill:#fff;}.cls-10{fill:#7f302f;}.cls-11{fill:#b14344;}.cls-12{fill:#d84f59;}.cls-13{fill:#49b382;}.cls-14{fill:#36495e;}.cls-15{fill:#fbc531;stroke:#000;stroke-miterlimit:10;}</style></defs><title>Asset 1</title><g class="cls-1"><g id="Layer_2" data-name="Layer 2"><g id="Capa_1" data-name="Capa 1"><polygon class="cls-2" points="69.18 94.45 88.07 170.83 219.37 181.76 230.59 172.35 231.99 135.5 226.04 111.81 234.8 56.26 234.28 30.67 119.6 62.34 69.18 94.45"/><path class="cls-3" d="M170.41,9.14a136.66,136.66,0,0,0-36,22.72L69.18,94.45l5.48,22.15,74.31-69a117,117,0,0,1,30.46-19c22.85-9.64,44-9.15,62.9,1.47,0,0,16.75-.14,16.45-4.39a40.11,40.11,0,0,0-4.68-15C229.27-3.25,199.52-3.34,170.41,9.14Z"/><path class="cls-4" d="M235.34,35.59s-7.59,8.71-4.63,17.95l12.75,6.66c5.1,2.67,12.46,1.31,13.82-3.3,1.28-4.33-1.58-10.67-9.21-14.66Z"/><path class="cls-4" d="M231.2,52.08s-7.25,8.31-4.42,17.13l12.16,6.35c4.88,2.55,11.89,1.25,13.19-3.15,1.23-4.13-1.51-10.18-8.79-14Z"/><path class="cls-4" d="M227.7,69s-6.6,7.57-4,15.6l11.08,5.79c4.44,2.32,10.83,1.14,12-2.87,1.12-3.76-1.37-9.28-8-12.74Z"/><path class="cls-4" d="M223.51,82.27s-6.1,6.88-3.8,14.26l10.13,5.41c4.06,2.17,9.93,1.13,11-2.53,1.05-3.44-1.21-8.51-7.27-11.75Z"/><path class="cls-4" d="M220.19,94.06s-5.94,6-4.14,12.84l9.12,5.54c3.65,2.22,9.11,1.62,10.3-1.67,1.12-3.09-.73-7.87-6.19-11.18Z"/><path class="cls-4" d="M257.42,156.16s11.71,5.21,16.26-5.24c0,0-1.7-7.42-3.36-14.71-1.35-5.89-7.13-11.66-11.42-10.48-4,1.12-6.85,7-4.84,15.75C255.72,148.72,257.42,156.16,257.42,156.16Z"/><path class="cls-4" d="M246.09,156.75s11.71,5.21,16.26-5.25L259,136.8c-1.34-5.89-7.12-11.66-11.41-10.48-4,1.12-6.85,7-4.84,15.75C244.38,149.3,246.09,156.75,246.09,156.75Z"/><path class="cls-4" d="M234.46,157.28s11.72,5.2,16.26-5.25c0,0-1.69-7.42-3.36-14.71-1.34-5.89-7.13-11.66-11.41-10.47-4,1.12-6.86,6.94-4.84,15.74Z"/><path class="cls-4" d="M225,160.18s11.71,5.21,16.26-5.25l-3.37-14.7c-1.34-5.89-7.12-11.67-11.41-10.48-4,1.12-6.85,6.95-4.84,15.75C223.25,152.73,225,160.18,225,160.18Z"/><path class="cls-3" d="M217.38,199.14a137.09,137.09,0,0,1-42.47-3.31l-86.84-25L82.84,149.7l97.64,25.38a117,117,0,0,0,35.8,2.6c24.71-2.12,43.21-12.42,55-30.61,0,0,14.89-7.68,16.59-3.79a39.91,39.91,0,0,1,2.86,15.48C275.24,182.66,249,196.61,217.38,199.14Z"/><path class="cls-3" d="M110.12,125.81A23,23,0,1,1,82.28,109,23,23,0,0,1,110.12,125.81Z"/><path class="cls-5" d="M93.38,130.78a7,7,0,0,1-5.13,8.5L43,150.47a7,7,0,0,1-8.5-5.13h0a7,7,0,0,1,5.13-8.5l45.27-11.19a7,7,0,0,1,8.5,5.13Z"/><path class="cls-6" d="M88.24,125.65c-15,12.08-31.74,21-51.9,20.24-.58,0-1.16-.06-1.73-.11A7,7,0,0,0,43,150.47l45.27-11.19a7,7,0,0,0,0-13.63Z"/><path class="cls-7" d="M84.93,127.82,36.69,139.75l.8,3.25,48.24-11.93a1.67,1.67,0,1,0-.8-3.25Z"/><path class="cls-5" d="M.34,140.49c1.48,6,5.71,10.34,10.26,11.08-3.68,2.77-5.4,8.58-3.92,14.58,1.85,7.46,10.81,11.65,17.63,10,14.11-3.49,21.6-29.59,22.66-33.54-2.78-3-21.57-22.61-35.68-19.12C4.47,125.15-1.51,133,.34,140.49ZM25.07,162a6.8,6.8,0,1,1-8.23-5A6.8,6.8,0,0,1,25.07,162Zm-6.53-26.4a6.8,6.8,0,1,1-8.23-5A6.79,6.79,0,0,1,18.54,135.6Z"/><path class="cls-6" d="M42.53,138.14a35.07,35.07,0,0,1-17.27,25.57,6.79,6.79,0,0,1-12.15,4.1,33.7,33.7,0,0,1-5.75.26c2.78,6.23,10.74,9.58,17,8.05,14.11-3.49,21.6-29.59,22.66-33.54C46.31,141.86,44.73,140.2,42.53,138.14Z"/><path class="cls-7" d="M13.1,126.84c-6,1.49-10.2,5.43-9.36,8.82a4,4,0,0,0,1.43,2.16,6.8,6.8,0,0,1,13.37-2.22,6.91,6.91,0,0,1,.12,2.67c4.6-1.83,7.55-5.11,6.84-8C24.66,126.89,19.11,125.35,13.1,126.84Z"/><path class="cls-8" d="M210.12,107.08a39.55,39.55,0,1,1-47.89-28.91A39.56,39.56,0,0,1,210.12,107.08Z"/><path class="cls-9" d="M106.11,108.78s14.52-3.52,17.36-14.21l-10.08-14.4c-4-5.76-13.35-9.1-18-5.56C91,77.94,90,85.8,96.05,94.41Z"/><path class="cls-9" d="M90.07,123.68s14.62-3.1,17.84-13.72c0,0-4.79-7.43-9.51-14.72-3.81-5.9-13-9.52-17.74-6.11-4.5,3.2-5.77,11-.08,19.85Z"/><path class="cls-9" d="M122.21,95s14.4-4,17-14.78l-10.4-14.12c-4.16-5.65-13.52-8.7-18.08-5-4.29,3.47-5.09,11.37,1.13,19.82Z"/><path class="cls-9" d="M138,81.46s14.69-2.73,18.18-13.27L147,53.24c-3.66-6-12.73-9.84-17.59-6.56-4.57,3.09-6,10.9-.57,19.85Z"/><path class="cls-9" d="M151.37,66.25s15.28-1.51,20-11.79l-7.65-15.78c-3.06-6.31-11.88-10.93-17.2-8-5,2.71-7.38,10.43-2.8,19.86Z"/><path class="cls-9" d="M169.56,56.27s16.57,1.14,23-9.55l-6.16-19.17C183.9,19.87,175.05,13,169,15.3c-5.71,2.13-9.25,10.37-5.56,21.84C166.44,46.57,169.56,56.27,169.56,56.27Z"/><path class="cls-9" d="M190.44,49S206.9,51.15,214,40.87c0,0-2.51-9.84-5-19.51-2-7.81-10.4-15.17-16.6-13.29-5.83,1.77-9.87,9.78-6.9,21.45C187.92,39.12,190.44,49,190.44,49Z"/><path class="cls-9" d="M209.91,44.41s14.73,5.72,23.58-2.17c0,0-.08-9.66-.16-19.14-.06-7.67-6.17-16.37-12.33-16-5.8.31-11.35,6.79-11.25,18.24C209.83,34.72,209.91,44.41,209.91,44.41Z"/><path class="cls-9" d="M228.44,44.28s9.8,7.36,17.6,1.48c0,0,1.58-8.8,3.14-17.43,1.25-7-1.73-15.79-6.29-16.39-4.29-.57-9.45,4.51-11.32,14.94Z"/><path class="cls-9" d="M241.05,46.36s8.17,6.31,14.74,1.2c0,0,1.36-7.61,2.7-15.07,1.08-6-1.38-13.63-5.2-14.13-3.59-.47-7.93,3.94-9.55,13C242.41,38.72,241.05,46.36,241.05,46.36Z"/><path class="cls-10" d="M201.23,122.92c-25.37,8.5-41.23,17.84-38,42.2l39.68-1.7C196,135.47,231,119.25,231.49,119A80.66,80.66,0,0,0,201.23,122.92Z"/><path class="cls-11" d="M238.92,117.18c3-1,6.06-1.82,9-2.48l.25-.11a107.21,107.21,0,0,0-35,5c-29.52,9.55-48.12,19.62-45.22,44.3l26.12-1.78C191.75,136.9,210.08,126.68,238.92,117.18Z"/><path class="cls-12" d="M133.87,164s-16.37-44.8,27.72-60.33c0,0,15.56-40.94,91.85-16,18.16,5.93,18.82,29.39,5.92,27.84a109.31,109.31,0,0,0-46.46,4.23c-29.51,9.55-48.11,19.61-45.21,44.3Z"/><path class="cls-10" d="M224.69,97.24a83.06,83.06,0,0,0-16-2.88,85.31,85.31,0,0,0-16.14.14,83.7,83.7,0,0,0-15.8,3.2,104.16,104.16,0,0,0-15.12,6.06A60.64,60.64,0,0,1,176.15,96a65.78,65.78,0,0,1,16.16-3.79,67.15,67.15,0,0,1,16.58.37A53.83,53.83,0,0,1,224.69,97.24Z"/><path class="cls-9" d="M273.09,154.3s11.71,5.2,16.26-5.25c0,0-1.7-7.42-3.36-14.71-1.35-5.89-7.13-11.66-11.42-10.47-4,1.12-6.85,6.94-4.84,15.74C271.39,146.85,273.09,154.3,273.09,154.3Z"/><path class="cls-9" d="M234.09,179.24a11.42,11.42,0,0,0,10,2.13,10.65,10.65,0,0,0,7.81-7.76l-3.33-14.71c-1.34-5.89-7.5-11.57-12.19-10.29-4.41,1.22-7.6,7.14-5.6,15.94Z"/><path class="cls-9" d="M251.3,171.3s12.62,5,17.79-5.63L265.76,151c-1.34-5.9-7.5-11.58-12.19-10.29-4.41,1.22-7.6,7.14-5.6,15.94Z"/><path class="cls-9" d="M267.46,164s11.72,5.21,16.26-5.24c0,0-1.69-7.42-3.36-14.71-1.34-5.89-7.13-11.66-11.41-10.48-4,1.12-6.85,6.95-4.84,15.75Z"/><path class="cls-9" d="M216.56,184s12.62,5,17.79-5.63L231,163.69c-1.33-5.89-7.5-11.57-12.19-10.28-4.41,1.21-7.6,7.13-5.6,15.94Z"/><path class="cls-9" d="M198,183.83s12.62,5,17.8-5.63c0,0-1.69-7.42-3.34-14.71-1.33-5.89-7.5-11.57-12.18-10.28-4.41,1.21-7.6,7.13-5.61,15.94Z"/><path class="cls-9" d="M180.16,184.5s12.1,4.78,17.06-5.39c0,0-1.62-7.12-3.2-14.1-1.28-5.65-7.19-11.09-11.68-9.86-4.22,1.16-7.28,6.84-5.37,15.28Z"/><path class="cls-9" d="M162.36,181.11s12.1,4.78,17.06-5.39c0,0-1.62-7.12-3.2-14.1-1.28-5.65-7.19-11.09-11.68-9.86-4.22,1.16-7.28,6.84-5.37,15.28Z"/><path class="cls-9" d="M143.86,178.45s12.1,4.78,17.06-5.39c0,0-1.61-7.12-3.2-14.1-1.27-5.65-7.18-11.1-11.67-9.86-4.23,1.16-7.29,6.84-5.38,15.28C142.25,171.31,143.86,178.45,143.86,178.45Z"/><path class="cls-9" d="M125,172.88c4.49,3.18,12.92,1.1,14.63-3.66,1.58-4.41,1.28-9.14-.26-16.14-.77-3.46-4.78-9.6-8.33-8.72-5,1.24-4.33,4.46-5.09,4.64-.58.15-1.63-2.33-6.89-1-3.71.92-3.43,7-2.34,11.93A21.26,21.26,0,0,0,125,172.88Z"/><path class="cls-9" d="M101.25,169.35c4.5,3.17,12.92,1.09,14.63-3.66,1.59-4.41,1.29-9.15-.26-16.14-.76-3.47-4.78-9.6-8.32-8.73-5,1.24-4.34,4.46-5.09,4.65-.59.14-1.63-2.33-6.89-1-3.71.91-3.44,7-2.35,11.92A21.26,21.26,0,0,0,101.25,169.35Z"/><path class="cls-2" d="M147.46,80.49s-.36,6.28,4.94,7.12c6.71,1.06,12.94,10.48,5.08,15.33-8.48,5.24-13.3-3.59-13.26-7.6.05-6.09-.43-8.42-4-10C140.18,85.34,147.46,80.49,147.46,80.49Z"/><path class="cls-7" d="M158.53,95.8c.85,1.51-.56,3.9-3.14,5.34s-5.35,1.37-6.19-.14.56-3.9,3.14-5.34S157.69,94.29,158.53,95.8Z"/></g><g id="Layer_5" data-name="Layer 5"><path class="cls-13" d="M254.86,55.48l-8.64,15-8.65-15H208.78l37.44,64.85,37.44-64.85Z"/><path class="cls-14" d="M254.86,55.48l-8.64,15-8.65-15H223.75l22.47,38.91,22.46-38.91Z"/></g><g id="Layer_6" data-name="Layer 6"><path class="cls-15" d="M231,109.93a8.29,8.29,0,0,0-.05-2.88,8.26,8.26,0,0,0-.4-2.11c-2,.33-3.12.49-3.24.49a18.78,18.78,0,0,1-2.18.23,4,4,0,0,1-.79,0c-.24-.06-.36-.32-.36-.79a2.31,2.31,0,0,1,.36-1.26,1.76,1.76,0,0,1,.67-.69,10.93,10.93,0,0,1,2-.86,12.18,12.18,0,0,1,2.21-.72,12.46,12.46,0,0,1,3.55-.9,1.16,1.16,0,0,1,.27,0l.77-.14h1.3l1,.32a6.3,6.3,0,0,1,1.84,1.3l.09.27q.36.27.36.36a1.31,1.31,0,0,0,.05.27q0,1.13-.63,1.35a4,4,0,0,1-1,0,3.53,3.53,0,0,0-1.94.09,1.91,1.91,0,0,0,.14.76,18,18,0,0,1,.54,2.39,14.11,14.11,0,0,0,.38,1.91,18.72,18.72,0,0,1,.47,3.58q.5,1.08.5,6a5.15,5.15,0,0,1,0,.77,4,4,0,0,0-.13,1.35,3.79,3.79,0,0,0-.09.9,4.41,4.41,0,0,0-.14.78q0,.48-.09.75a1.91,1.91,0,0,1-.38,1,2.74,2.74,0,0,0-.38,1.33,2.43,2.43,0,0,1-.34.63,2.34,2.34,0,0,1-.61.72l-.36.4q0,.27-.9,1.17l-.31.36a9.76,9.76,0,0,0-1.17,1.17c0,.12-.38.29-1.06.5a3.85,3.85,0,0,1-2.18,0,2.53,2.53,0,0,1-1.35-.81c-.12,0-.2,0-.23,0a4.8,4.8,0,0,0-1.44-.81q-.09.09-1.08-.81a9.15,9.15,0,0,1-1.66-1.71,6,6,0,0,0-.45-1s-.07-.27-.2-.74a9.67,9.67,0,0,1-.3-2v-.32a7.52,7.52,0,0,1,.54-1.62c.6-.69,1.35-.7,2.25,0a3.53,3.53,0,0,0,.5,1.28,4,4,0,0,1,.49,1.06,7.2,7.2,0,0,0,1.62,2.61,2,2,0,0,0,1.35.54,8.66,8.66,0,0,0,1.4-1.08,1.93,1.93,0,0,0,.36-.63,3.14,3.14,0,0,0,.47-.77,5.87,5.87,0,0,1,.2-.63s.12-.36.36-1a3.43,3.43,0,0,0,.18-2.16s0-.13,0-.31c-.09-.72-.15-1.16-.18-1.31v-.4a.2.2,0,0,1,0-.14l.09-.9a5.19,5.19,0,0,1-.4-1.44,6.31,6.31,0,0,1-.09-3.15,3,3,0,0,0-.09-.38,1.62,1.62,0,0,1-.05-.65Z"/><path class="cls-15" d="M242.49,113.53l-.14-.58s0-.16,0-.39a3.79,3.79,0,0,0-.07-.83c0-.75,0-1.3-.05-1.66a5.6,5.6,0,0,1-.13-1.76,14.34,14.34,0,0,1,0-3,14.88,14.88,0,0,1,.5-2.39,5.68,5.68,0,0,0,.49-1.12,4.22,4.22,0,0,1,.9-1.08l.9-.45a4.31,4.31,0,0,1,2.34.13l1,.23a13.13,13.13,0,0,1-.18,1.93c0,.84-.15,2-.36,3.56a73.24,73.24,0,0,0-.63,9.94l.18.72a25.54,25.54,0,0,0,2.37-2,10.22,10.22,0,0,1,1.37-1.22l1-.85a8.86,8.86,0,0,0,1.31-1.17,5.66,5.66,0,0,1,2.07-1.71,2.6,2.6,0,0,1,1.44.4q.72.63.72,1.08a1.83,1.83,0,0,1-.11.7,3.71,3.71,0,0,1-.39.61,5.27,5.27,0,0,0-.49.81,15.59,15.59,0,0,1-2.43,2.88c-.84.9-1.49,1.54-1.94,1.93a12.16,12.16,0,0,1-2,1.49,3.48,3.48,0,0,0,.21.33c.1.17.21.37.33.61a13.41,13.41,0,0,0,3.24,2.79,2.39,2.39,0,0,0,1.13.68,2,2,0,0,0,.49.36l.27.09a4,4,0,0,0,1.31.49c1,.18,1.44.51,1.44,1a1.15,1.15,0,0,1-.72,1.06,6.88,6.88,0,0,1-1.35.9,1.5,1.5,0,0,0-.77.27,5.21,5.21,0,0,1-3.82-.45,4.83,4.83,0,0,1-2-1.71l-1-.81a18.75,18.75,0,0,0-1.53-1.71l.18,1.39.22,1.35a11.67,11.67,0,0,0,.18,2.3,1.08,1.08,0,0,1-.33,1.21,3.65,3.65,0,0,1-1.85.41,2.59,2.59,0,0,1-2-.63,2.47,2.47,0,0,1-.34-1.15,9.28,9.28,0,0,0-.29-1.42,12,12,0,0,1-.72-4.72l-.05-1.35a6.29,6.29,0,0,0,.05-1A22.51,22.51,0,0,0,242.49,113.53Z"/><path class="cls-15" d="M265.21,125.82a.8.8,0,0,1,.75.79c0,.46.06,1.09.06,1.88a10.81,10.81,0,0,1-.67,3.22,1.94,1.94,0,0,1-.5,1,6.83,6.83,0,0,1-.45,1.17,3.39,3.39,0,0,1-2,2.25,1.56,1.56,0,0,1-.63.32,2,2,0,0,1-1.71-.27c-.18-.09-.23-.2-.14-.32a2.48,2.48,0,0,1,.52-1.06,7.8,7.8,0,0,0,.65-1,8.61,8.61,0,0,0,.36-1.15V130.9a2.73,2.73,0,0,0-.72-2.18,2,2,0,0,1-.63-1.82s0-.17,0-.43a2.73,2.73,0,0,1,.32-.9,2.11,2.11,0,0,1,.67-.79l.68,0a3.68,3.68,0,0,1,1.66.18l.72.18S264.52,125.4,265.21,125.82Z"/><path class="cls-15" d="M286,102.35a.76.76,0,0,1,.27-.07c.06,0,.49-.07,1.3-.22l1.58-.32.76-.13h1.31l1,.31a6.52,6.52,0,0,1,1.85,1.22l.09.27q.36.27.36.36a.69.69,0,0,0,0,.22c0,.72-.21,1.16-.63,1.31a4.29,4.29,0,0,1-1,0,3.49,3.49,0,0,0-1.93.09,2.19,2.19,0,0,0,.13.77,4.44,4.44,0,0,1,.36,1.39c.12.75.31,1.64.57,2.66a18,18,0,0,1,.47,3.42q.5,1.08.49,5.71a4.48,4.48,0,0,1,.05.72,3.74,3.74,0,0,0-.14,1.31,3.52,3.52,0,0,0-.09.85,4.54,4.54,0,0,0-.13.77q0,.45-.09.72a1.57,1.57,0,0,1-.36.9,1.42,1.42,0,0,0-.34.83,2.27,2.27,0,0,1-.43,1.06,3.28,3.28,0,0,1-.56.7,4.55,4.55,0,0,0-.52.56,13.77,13.77,0,0,1-1.08,1.3,11.63,11.63,0,0,0-1.17,1.13,3.27,3.27,0,0,1-1.08.45,3.78,3.78,0,0,1-2.16,0,2.42,2.42,0,0,1-1.35-.77c-.12,0-.19,0-.22,0a5.57,5.57,0,0,0-1.44-.76q-.09.09-1.08-.81c-.15,0-.71-.54-1.67-1.62a3.77,3.77,0,0,0-.27-.63,8.69,8.69,0,0,1-.67-3v-.32a7.61,7.61,0,0,1,.54-1.53c.6-.66,1.35-.67,2.25,0a3.35,3.35,0,0,0,.49,1.17l1.08,2.34.41.54.63.67a2,2,0,0,0,1.35.54,10.92,10.92,0,0,0,1.39-1c.45-.72.74-1.16.86-1.31a8.22,8.22,0,0,1,.54-1.57,3.19,3.19,0,0,0,.18-2.07,1.28,1.28,0,0,1-.09-.45,3.49,3.49,0,0,0-.14-1.08v-.41a.17.17,0,0,1,0-.13l.09-.86a4.88,4.88,0,0,1-.41-1.39,5.61,5.61,0,0,1-.09-3,2.7,2.7,0,0,0-.09-.36,1.5,1.5,0,0,1,0-.63l-.05-1.26a7.47,7.47,0,0,0,0-2.75,7.86,7.86,0,0,0-.41-2c-2,.33-3.12.49-3.24.49a15.21,15.21,0,0,1-2.09.18,1.7,1.7,0,0,1-1-.18,1.13,1.13,0,0,1-.21-.72,1.83,1.83,0,0,1,.34-1.08,1.76,1.76,0,0,1,.68-.67,15.11,15.11,0,0,1,2-.81,21.72,21.72,0,0,1,2.2-.68,2.63,2.63,0,0,1,.41-.2Z"/><path class="cls-15" d="M298.78,102.82a1.32,1.32,0,0,1,.05-.31v-1.44a1.33,1.33,0,0,0,0-.39.93.93,0,0,1,.09-.42,1.51,1.51,0,0,1,.5-1.08.8.8,0,0,1,.49-.45,3.93,3.93,0,0,1,2.25.36s0,0,.11,0l.21.07c.3,0,.55.3.76.81q0,.49.18,3.24a33,33,0,0,1,.05,4.5v.45c-.09,2.28-.14,4.2-.14,5.76a1,1,0,0,0,0,.58,21.88,21.88,0,0,0-.09,2.61l.36-.49.23-.45a.56.56,0,0,1,.18-.34,1.21,1.21,0,0,0,.22-.32.9.9,0,0,1,.14-.22,1.5,1.5,0,0,0,.15-.23,2.28,2.28,0,0,1,.48-.38c0-.09.16-.28.49-.58l2.07-2.61,1.17-.81a1.69,1.69,0,0,1,.92-.48,4.29,4.29,0,0,1,1.38-.15q.68-.41,2,.45c.45.42.46.94,0,1.57-.75,1.11-1.2,1.76-1.35,1.94l-1.93,2.7-.54.85c-1,1.35-1.71,2.15-2,2.41s-.37.47-.34.65a3.7,3.7,0,0,0,1,.77,3.34,3.34,0,0,0,.34.38c.1.11.16.17.16.2l2.16,2.16a28.82,28.82,0,0,1,2.47,3l2.07,2.3c.51.3.77.61.77.94s-.29.62-.86.86c-.18.18-.73.22-1.66.13a2.33,2.33,0,0,1-1.4,0,4.51,4.51,0,0,1-2.43-.86c-.51-.39-.76-.67-.76-.85a4.28,4.28,0,0,0-.45-.54,6.61,6.61,0,0,1-.45-.68,3,3,0,0,1-.9-1.17c-.27-.18-.41-.29-.41-.34s-.09-.14-.27-.29a2.6,2.6,0,0,0-.36-.27,3.84,3.84,0,0,0-.76-1.12,1,1,0,0,1-.43-.39c-.11-.16-.14-.24-.11-.24l-.86-1.08-.36-.54a35.89,35.89,0,0,0,.68,6.88c.06.48.09.77.11.86s0,.17,0,.24a.8.8,0,0,1,0,.16L304,131a1,1,0,0,1,.27.49,1.06,1.06,0,0,1,.09.54l-.52.59a.92.92,0,0,1-.58.18c-.32,0-.49,0-.52-.14a8.91,8.91,0,0,0-2-1,.57.57,0,0,0-.14-.27,1.92,1.92,0,0,1-.63-.67c-.12-.06-.25-.27-.4-.63a3.53,3.53,0,0,1-.41-1.67,1.4,1.4,0,0,0-.13-.4.72.72,0,0,1-.05-.36l-.13-1.17a1.73,1.73,0,0,1-.05-.86l-.22-.72-.09-1.57.09-.63a1.38,1.38,0,0,1-.05-1.17v-.27a4.08,4.08,0,0,1-.09-.81,3.65,3.65,0,0,1,0-.86,1,1,0,0,0,.05-.31,8.11,8.11,0,0,1-.09-1.13v-.49c-.15-3-.23-4.53-.23-4.59v-1.26a8.2,8.2,0,0,1,.07-1.49,17.93,17.93,0,0,0,.09-1.89,2.33,2.33,0,0,1,.07-.9,3.72,3.72,0,0,1,.09-.81v-.49a5.45,5.45,0,0,0,.09-.86Z"/></g></g></g></svg>